<svg width="512" height="512" viewBox="0 0 512 512" xmlns="http://www.w3.org/2000/svg">
  <defs>
    <linearGradient id="bgGradient" x1="0%" y1="0%" x2="100%" y2="100%">
      <stop offset="0%" style="stop-color:#6366F1"/>
      <stop offset="100%" style="stop-color:#8B5CF6"/>
    </linearGradient>
  </defs>
  
  <!-- 背景 -->
  <rect width="512" height="512" rx="128" fill="url(#bgGradient)"/>
  
  <!-- 魔方 -->
  <g transform="translate(256, 256) scale(1.2)">
    <!-- 3D效果 -->
    <g transform="rotate(45 0 0)">
      <!-- 魔方网格 -->
      <g fill="#FFFFFF" stroke="#4F46E5" stroke-width="8">
        <!-- 第一行 -->
        <rect x="-96" y="-96" width="64" height="64" rx="8"/>
        <rect x="-32" y="-96" width="64" height="64" rx="8"/>
        <rect x="32" y="-96" width="64" height="64" rx="8"/>
        
        <!-- 第二行 -->
        <rect x="-96" y="-32" width="64" height="64" rx="8"/>
        <rect x="-32" y="-32" width="64" height="64" rx="8"/>
        <rect x="32" y="-32" width="64" height="64" rx="8"/>
        
        <!-- 第三行 -->
        <rect x="-96" y="32" width="64" height="64" rx="8"/>
        <rect x="-32" y="32" width="64" height="64" rx="8"/>
        <rect x="32" y="32" width="64" height="64" rx="8"/>
      </g>
      
      <!-- 阴影 -->
      <g opacity="0.2">
        <rect x="-96" y="-96" width="64" height="64" rx="8" fill="#000"/>
        <rect x="-32" y="-96" width="64" height="64" rx="8" fill="#000"/>
        <rect x="32" y="-96" width="64" height="64" rx="8" fill="#000"/>
        <rect x="-96" y="-32" width="64" height="64" rx="8" fill="#000"/>
        <rect x="-32" y="-32" width="64" height="64" rx="8" fill="#000"/>
        <rect x="32" y="-32" width="64" height="64" rx="8" fill="#000"/>
        <rect x="-96" y="32" width="64" height="64" rx="8" fill="#000"/>
        <rect x="-32" y="32" width="64" height="64" rx="8" fill="#000"/>
        <rect x="32" y="32" width="64" height="64" rx="8" fill="#000"/>
      </g>
    </g>
  </g>
</svg>